HIERARCHY
ROOT Hips
{
	OFFSET 0.000000 0.000000 0.000000
	CHANNELS 6 Xposition Yposition Zposition Zrotation Yrotation Xrotation 
	JOINT LHipJoint
	{
		OFFSET 0.000000 0.000000 0.000000
		CHANNELS 3 Zrotation Yrotation Xrotation
		JOINT LeftUpLeg
		{
			OFFSET 1.363060 -1.794630 0.839290
			CHANNELS 3 Zrotation Yrotation Xrotation
			JOINT LeftLeg
			{
				OFFSET 2.448110 -6.726130 0.000000
				CHANNELS 3 Zrotation Yrotation Xrotation
				JOINT LeftFoot
				{
					OFFSET 2.562200 -7.039590 0.000000
					CHANNELS 3 Zrotation Yrotation Xrotation
					JOINT LeftToeBase
					{
						OFFSET 0.157640 -0.433110 2.322550
						CHANNELS 3 Zrotation Yrotation Xrotation
						End Site
						{
							OFFSET 0.000000 0.000000 0.000000
						}
					}
				}
			}
		}
	}
	JOINT RHipJoint
	{
		OFFSET 0.000000 0.000000 0.000000
		CHANNELS 3 Zrotation Yrotation Xrotation
		JOINT RightUpLeg
		{
			OFFSET -1.305520 -1.794630 0.839290
			CHANNELS 3 Zrotation Yrotation Xrotation
			JOINT RightLeg
			{
				OFFSET -2.542530 -6.985550 0.000000
				CHANNELS 3 Zrotation Yrotation Xrotation
				JOINT RightFoot
				{
					OFFSET -2.568260 -7.056230 0.000000
					CHANNELS 3 Zrotation Yrotation Xrotation
					JOINT RightToeBase
					{
						OFFSET -0.164730 -0.452590 2.363150
						CHANNELS 3 Zrotation Yrotation Xrotation
						End Site
						{
							OFFSET 0.000000 0.000000 0.000000
						}
					}
				}
			}
		}
	}
	JOINT LowerBack
	{
		OFFSET 0.000000 0.000000 0.000000
		CHANNELS 3 Zrotation Yrotation Xrotation
		JOINT Spine
		{
			OFFSET 0.028270 2.035590 -0.193380
			CHANNELS 3 Zrotation Yrotation Xrotation
			JOINT Spine1
			{
				OFFSET 0.056720 2.048850 -0.042750
				CHANNELS 3 Zrotation Yrotation Xrotation
				JOINT Neck
				{
					OFFSET 0.000000 0.000000 0.000000
					CHANNELS 3 Zrotation Yrotation Xrotation
					JOINT Neck1
					{
						OFFSET -0.054170 1.746240 0.172020
						CHANNELS 3 Zrotation Yrotation Xrotation
						JOINT Head
						{
							OFFSET 0.104070 1.761360 -0.123970
							CHANNELS 3 Zrotation Yrotation Xrotation
							End Site
							{
								OFFSET 0.000000 0.000000 0.000000
							}
						}
					}
				}
				JOINT LeftShoulder
				{
					OFFSET 0.000000 0.000000 0.000000
					CHANNELS 3 Zrotation Yrotation Xrotation
					JOINT LeftArm
					{
						OFFSET 3.362410 1.200890 -0.311210
						CHANNELS 3 Zrotation Yrotation Xrotation
						JOINT LeftForeArm
						{
							OFFSET 4.983000 -0.000000 -0.000000
							CHANNELS 3 Zrotation Yrotation Xrotation
							JOINT LeftHand
							{
								OFFSET 3.483560 -0.000000 -0.000000
								CHANNELS 3 Zrotation Yrotation Xrotation
								JOINT LeftFingerBase
								{
									OFFSET 0.000000 0.000000 0.000000
									CHANNELS 3 Zrotation Yrotation Xrotation
									JOINT LeftHandIndex1
									{
										OFFSET 0.715260 -0.000000 -0.000000
										CHANNELS 3 Zrotation Yrotation Xrotation
										End Site
										{
											OFFSET 0.000000 0.000000 0.000000
										}
									}
								}
								JOINT LThumb
								{
									OFFSET 0.000000 0.000000 0.000000
									CHANNELS 3 Zrotation Yrotation Xrotation
									End Site
									{
										OFFSET 0.000000 0.000000 0.000000
									}
								}
							}
						}
					}
				}
				JOINT RightShoulder
				{
					OFFSET 0.000000 0.000000 0.000000
					CHANNELS 3 Zrotation Yrotation Xrotation
					JOINT RightArm
					{
						OFFSET -3.136600 1.374050 -0.404650
						CHANNELS 3 Zrotation Yrotation Xrotation
						JOINT RightForeArm
						{
							OFFSET -5.241900 -0.000000 -0.000000
							CHANNELS 3 Zrotation Yrotation Xrotation
							JOINT RightHand
							{
								OFFSET -3.444170 -0.000000 -0.000000
								CHANNELS 3 Zrotation Yrotation Xrotation
								JOINT RightFingerBase
								{
									OFFSET 0.000000 0.000000 0.000000
									CHANNELS 3 Zrotation Yrotation Xrotation
									JOINT RightHandIndex1
									{
										OFFSET -0.622530 -0.000000 -0.000000
										CHANNELS 3 Zrotation Yrotation Xrotation
										End Site
										{
											OFFSET 0.000000 0.000000 0.000000
										}
									}
								}
								JOINT RThumb
								{
									OFFSET 0.000000 0.000000 0.000000
									CHANNELS 3 Zrotation Yrotation Xrotation
									End Site
									{
										OFFSET 0.000000 0.000000 0.000000
									}
								}
							}
						}
					}
				}
			}
		}
	}
}
MOTION
Frames: 6
Frame Time: 0.008333
-2.499804 16.858561 -1.291644 8.224066 77.213387 19.816220 -10.075293 0.080304 3.590142 -2.851277 -4.712228 -33.729758 -2.175037 0.101335 10.230069 -0.648261 -6.719220 10.503761 -1.645600 0.000000 -35.806101 9.076081 -2.521102 0.473626 9.149216 4.007873 0.853908 2.251767 -1.305225 23.768399 0.126885 4.390511 -10.500077 -0.071300 0.000000 -60.367900 -2.066242 0.658009 -4.480830 -1.440747 0.582197 -4.008786 -7.210955 0.430085 -0.464892 10.710804 -1.226575 -4.293004 -4.482630 -0.378927 0.870376 0.000000 0.000000 0.000000 -5.851985 9.294720 2.245995 -68.741040 11.222361 5.473470 -3.655006 -12.786420 -0.003349 2.378965 4.623128 0.099458 -0.062775 -0.043381 -0.000000 0.000000 0.000000 0.000000 0.000000 0.000000 0.000000 19.928485 4.299344 -0.253289 73.610716 26.500540 17.330257 2.145650 37.870289 0.004528 -0.949997 9.526924 -0.083606 0.039942 -0.259338 0.000000 0.000000 0.000000 0.000000 0.000000 0.000000 0.000000 
-2.354108 16.866131 -1.265643 10.240014 76.642118 21.731394 -10.041537 0.171498 3.424863 -3.868938 -3.944820 -33.643595 -2.264710 0.144936 11.109825 -0.646534 -6.658985 10.221129 -1.593200 -0.000001 -35.351900 9.315088 -2.613129 0.473547 8.365915 3.673119 -0.002657 1.995991 -1.558588 26.014216 0.085216 3.860797 -9.632443 -0.037900 0.000001 -63.474100 -2.735931 0.482934 -4.460623 -1.566044 0.465130 -4.009317 -7.257157 0.306082 -0.473871 10.944348 -1.294981 -4.306130 -4.522486 -0.381682 0.862656 0.000000 0.000000 0.000000 -5.610076 9.111994 2.242307 -68.566970 11.122009 5.893998 -3.678374 -12.985235 -0.003399 2.364178 4.588598 0.098162 -0.063961 -0.043612 -0.000000 0.000000 0.000000 0.000000 0.000000 0.000000 0.000000 20.396300 4.118925 -0.246453 74.082933 25.784163 17.245454 2.153919 37.216627 0.004485 -0.968271 9.590656 -0.085719 0.039665 -0.255407 0.000000 0.000000 0.000000 0.000000 0.000000 0.000000 0.000000 
-2.212576 16.876526 -1.239319 12.018276 76.052966 23.407240 -9.986521 0.263039 3.281194 -4.792805 -3.343515 -33.450999 -2.353170 0.172557 11.885654 -0.643272 -6.543255 9.698445 -1.499400 -0.000000 -34.968300 9.571493 -2.692043 0.442805 7.588856 3.218140 -0.987988 1.716963 -1.814541 28.392998 0.035968 3.268446 -8.538032 -0.008000 -0.000000 -66.295900 -3.378782 0.302900 -4.415862 -1.685315 0.341600 -4.004900 -7.296369 0.176236 -0.485953 11.151088 -1.363479 -4.314653 -4.556594 -0.384014 0.856038 0.000000 0.000000 0.000000 -5.378728 8.883813 2.241049 -68.392609 10.983816 6.369615 -3.700288 -13.178013 -0.003461 2.340977 4.553494 0.096568 -0.065164 -0.043616 -0.000000 0.000000 0.000000 0.000000 0.000000 0.000000 0.000000 20.808700 3.923896 -0.240344 74.594859 25.050771 17.071887 2.160615 36.464865 0.004362 -1.009005 9.640259 -0.089636 0.039522 -0.250906 0.000000 0.000000 0.000000 0.000000 0.000000 0.000000 0.000000 
-2.075358 16.889419 -1.213451 13.519734 75.430914 24.807422 -9.915533 0.354253 3.160141 -5.609609 -2.904463 -33.142445 -2.436252 0.184604 12.537288 -0.634196 -6.347439 8.992458 -1.367800 0.000000 -34.667300 9.838327 -2.751420 0.384513 6.835368 2.666290 -2.093039 1.415523 -2.066218 30.883550 -0.030671 2.573658 -7.228427 0.012100 0.000000 -68.736899 -3.979236 0.125568 -4.348384 -1.795959 0.217591 -3.996049 -7.328379 0.046625 -0.500589 11.325849 -1.429252 -4.318929 -4.584966 -0.385922 0.850542 0.000000 0.000000 0.000000 -5.165491 8.617178 2.241271 -68.217638 10.806111 6.897878 -3.719809 -13.367542 -0.003534 2.310403 4.520103 0.094676 -0.066339 -0.043406 -0.000000 0.000000 0.000000 0.000000 0.000000 0.000000 0.000000 21.159693 3.721084 -0.232805 75.131594 24.306523 16.812957 2.166330 35.623337 0.004174 -1.068794 9.665985 -0.095057 0.039516 -0.245784 0.000000 0.000000 0.000000 0.000000 0.000000 0.000000 0.000000 
-1.942369 16.904392 -1.188896 14.683848 74.760936 25.876222 -9.836301 0.444396 3.059879 -6.310693 -2.596127 -32.725691 -2.510457 0.182668 13.055799 -0.615979 -6.060474 8.164607 -1.207700 0.000000 -34.447200 10.105235 -2.785776 0.306655 6.134629 2.057810 -3.305036 1.094742 -2.305842 33.459552 -0.126562 1.723820 -5.735974 0.010400 0.000000 -70.607000 -4.515709 -0.040650 -4.263609 -1.894207 0.099268 -3.983946 -7.353680 -0.076540 -0.516731 11.464696 -1.488659 -4.319745 -4.608063 -0.387438 0.846152 0.000000 0.000000 0.000000 -4.979948 8.323635 2.241660 -68.040344 10.589038 7.475983 -3.735705 -13.560207 -0.003616 2.273606 4.490596 0.092682 -0.067438 -0.043013 -0.000000 0.000000 0.000000 0.000000 0.000000 0.000000 0.000000 21.446166 3.519154 -0.221587 75.673909 23.557517 16.477825 2.172211 34.704396 0.003952 -1.140843 9.658860 -0.101181 0.039646 -0.240013 0.000000 0.000000 0.000000 0.000000 0.000000 0.000000 0.000000 
-1.813289 16.921121 -1.166437 15.465690 74.029747 26.573738 -9.757158 0.532840 2.976210 -6.894645 -2.371475 -32.218620 -2.573187 0.169084 13.441046 -0.586265 -5.678922 7.276597 -1.030500 -0.000000 -34.296100 10.361834 -2.791271 0.218668 5.515472 1.435105 -4.608440 0.759743 -2.526172 36.091180 -0.263002 0.664744 -4.106917 -0.032800 0.000000 -71.752201 -4.968846 -0.189008 -4.167343 -1.976559 -0.008544 -3.969354 -7.373146 -0.188375 -0.531167 11.566134 -1.537210 -4.320002 -4.626685 -0.388594 0.842217 0.000000 0.000000 0.000000 -4.829642 8.028612 2.240935 -67.856586 10.318836 8.112812 -3.746865 -13.754533 -0.003702 2.232213 4.466385 0.090590 -0.068433 -0.042423 -0.000000 0.000000 0.000000 0.000000 0.000000 0.000000 0.000000 21.669204 3.328032 -0.205771 76.201873 22.808352 16.076240 2.179607 33.724761 0.003733 -1.213704 9.609601 -0.106909 0.039862 -0.233577 0.000000 0.000000 0.000000 0.000000 0.000000 0.000000 0.000000 
